<svg width="15" height="15" viewBox="0 0 15 15" fill="none" xmlns="http://www.w3.org/2000/svg">
<path d="M7.20776 3.40625C5.20776 3.40625 3.61401 5.03125 3.61401 7C3.61401 9 5.20776 10.5938 7.20776 10.5938C9.17651 10.5938 10.8015 9 10.8015 7C10.8015 5.03125 9.17651 3.40625 7.20776 3.40625ZM7.20776 9.34375C5.92651 9.34375 4.86401 8.3125 4.86401 7C4.86401 5.71875 5.89526 4.6875 7.20776 4.6875C8.48901 4.6875 9.52026 5.71875 9.52026 7C9.52026 8.3125 8.48901 9.34375 7.20776 9.34375ZM11.7703 3.28125C11.7703 2.8125 11.3953 2.4375 10.9265 2.4375C10.4578 2.4375 10.0828 2.8125 10.0828 3.28125C10.0828 3.75 10.4578 4.125 10.9265 4.125C11.3953 4.125 11.7703 3.75 11.7703 3.28125ZM14.1453 4.125C14.0828 3 13.8328 2 13.0203 1.1875C12.2078 0.375 11.2078 0.125 10.0828 0.0625C8.92651 0 5.45776 0 4.30151 0.0625C3.17651 0.125 2.20776 0.375 1.36401 1.1875C0.551514 2 0.301514 3 0.239014 4.125C0.176514 5.28125 0.176514 8.75 0.239014 9.90625C0.301514 11.0312 0.551514 12 1.36401 12.8438C2.20776 13.6562 3.17651 13.9062 4.30151 13.9688C5.45776 14.0312 8.92651 14.0312 10.0828 13.9688C11.2078 13.9062 12.2078 13.6562 13.0203 12.8438C13.8328 12 14.0828 11.0312 14.1453 9.90625C14.2078 8.75 14.2078 5.28125 14.1453 4.125ZM12.6453 11.125C12.4265 11.75 11.9265 12.2188 11.3328 12.4688C10.3953 12.8438 8.20776 12.75 7.20776 12.75C6.17651 12.75 3.98901 12.8438 3.08276 12.4688C2.45776 12.2188 1.98901 11.75 1.73901 11.125C1.36401 10.2188 1.45776 8.03125 1.45776 7C1.45776 6 1.36401 3.8125 1.73901 2.875C1.98901 2.28125 2.45776 1.8125 3.08276 1.5625C3.98901 1.1875 6.17651 1.28125 7.20776 1.28125C8.20776 1.28125 10.3953 1.1875 11.3328 1.5625C11.9265 1.78125 12.3953 2.28125 12.6453 2.875C13.0203 3.8125 12.9265 6 12.9265 7C12.9265 8.03125 13.0203 10.2188 12.6453 11.125Z" fill="#FAD646"/>
</svg>
