<svg width="16" height="16" viewBox="0 0 16 16" fill="none" xmlns="http://www.w3.org/2000/svg">
<path d="M13.7828 0.1875H2.09528C1.19879 0.1875 0.501526 0.917969 0.501526 1.78125V13.4688C0.501526 14.3652 1.19879 15.0625 2.09528 15.0625H13.7828C14.6461 15.0625 15.3765 14.3652 15.3765 13.4688V1.78125C15.3765 0.917969 14.6461 0.1875 13.7828 0.1875ZM6.41168 7.85742C3.3902 5.66602 3.4234 5.66602 2.62653 5.03516V4.17188C2.62653 3.74023 2.95856 3.375 3.4234 3.375H12.4547C12.8863 3.375 13.2515 3.74023 13.2515 4.17188V5.03516C12.4214 5.66602 12.4547 5.66602 9.43317 7.85742C9.10114 8.08984 8.40387 8.7207 7.93903 8.6875C7.44098 8.7207 6.74371 8.08984 6.41168 7.85742ZM13.2515 6.36328V11.0781C13.2515 11.543 12.8863 11.875 12.4547 11.875H3.4234C2.95856 11.875 2.62653 11.543 2.62653 11.0781V6.36328C3.05817 6.72852 3.72223 7.22656 5.78082 8.6875C6.24567 9.05273 7.04254 9.7832 7.90582 9.75C8.80231 9.7832 9.63239 9.01953 10.064 8.6875C12.1226 7.22656 12.7867 6.72852 13.2515 6.36328Z" fill="#FAD646"/>
</svg>
