<svg width="18" height="15" viewBox="0 0 18 15" fill="none" xmlns="http://www.w3.org/2000/svg">
<path d="M16.0698 4.17188C16.7339 3.67383 17.3315 3.07617 17.7964 2.37891C17.1987 2.64453 16.5015 2.84375 15.8042 2.91016C16.5347 2.47852 17.0659 1.81445 17.3315 0.984375C16.6675 1.38281 15.9038 1.68164 15.1401 1.84766C14.4761 1.15039 13.5796 0.751953 12.5835 0.751953C10.6577 0.751953 9.09717 2.3125 9.09717 4.23828C9.09717 4.50391 9.13037 4.76953 9.19678 5.03516C6.30811 4.86914 3.71826 3.47461 1.9917 1.38281C1.69287 1.88086 1.52686 2.47852 1.52686 3.14258C1.52686 4.33789 2.12451 5.40039 3.0874 6.03125C2.52295 5.99805 1.9585 5.86523 1.49365 5.59961V5.63281C1.49365 7.32617 2.68896 8.7207 4.28271 9.05273C4.01709 9.11914 3.68506 9.18555 3.38623 9.18555C3.15381 9.18555 2.95459 9.15234 2.72217 9.11914C3.15381 10.5137 4.44873 11.5098 5.97607 11.543C4.78076 12.4727 3.28662 13.0371 1.65967 13.0371C1.36084 13.0371 1.09521 13.0039 0.82959 12.9707C2.35693 13.9668 4.18311 14.5312 6.17529 14.5312C12.5835 14.5312 16.0698 9.25195 16.0698 4.63672C16.0698 4.4707 16.0698 4.33789 16.0698 4.17188Z" fill="#FAD646"/>
</svg>
