<svg width="19" height="13" viewBox="0 0 19 13" fill="none" xmlns="http://www.w3.org/2000/svg">
<path d="M18.3363 2.27539C18.1371 1.47852 17.5062 0.847656 16.7426 0.648438C15.3148 0.25 9.67029 0.25 9.67029 0.25C9.67029 0.25 3.99255 0.25 2.56482 0.648438C1.80115 0.847656 1.17029 1.47852 0.971069 2.27539C0.572632 3.66992 0.572632 6.6582 0.572632 6.6582C0.572632 6.6582 0.572632 9.61328 0.971069 11.041C1.17029 11.8379 1.80115 12.4355 2.56482 12.6348C3.99255 13 9.67029 13 9.67029 13C9.67029 13 15.3148 13 16.7426 12.6348C17.5062 12.4355 18.1371 11.8379 18.3363 11.041C18.7347 9.61328 18.7347 6.6582 18.7347 6.6582C18.7347 6.6582 18.7347 3.66992 18.3363 2.27539ZM7.81091 9.34766V3.96875L12.5258 6.6582L7.81091 9.34766Z" fill="#FAD646"/>
</svg>
